<svg width="152" height="152" viewBox="0 0 152 152" fill="none" xmlns="http://www.w3.org/2000/svg">
<path d="M3 136.752L46 90.7517C46 90.7517 51 87.7517 51 70.2516C51 52.7515 53 50.7518 53 50.7518C53 50.7518 78.5 -7.74835 76 4.7516C73.5 17.2515 72.5 33.9998 71.5 48.5M23.5 149.252L48 119.502L60.25 104.627L66.375 97.1892C66.375 97.1892 68.375 94.6892 69.4375 93.4704C71.1731 90.7893 72.5 90.7517 72.5 90C79 89 75.5 56 75.5 51.5C75.5 47 75.5 42.2482 71.5 48.5M71.5 48.5C68.5 51.5 64 85.5 64 85.5" stroke="white" stroke-width="6"/>
<path d="M149.441 136.752L106.441 90.7517C106.441 90.7517 101.441 87.7517 101.441 70.2516C101.441 52.7515 99.4409 50.7518 99.4409 50.7518C99.4409 50.7518 73.9409 -7.74835 76.4409 4.7516C78.9409 17.2515 79.9409 33.9998 80.9409 48.5M128.941 149.252L104.441 119.502L92.1909 104.627L86.0659 97.1892C86.0659 97.1892 84.0659 94.6892 83.0034 93.4704C81.2679 90.7893 79.9409 90.7517 79.9409 90C73.4409 89 76.9409 56 76.9409 51.5C76.9409 47 76.9409 42.2482 80.9409 48.5M80.9409 48.5C83.9409 51.5 88.4409 85.5 88.4409 85.5" stroke="white" stroke-width="6"/>
<path d="M45.5 91C45.5 91 46.5 104.5 59.5 105.5" stroke="white" stroke-width="6"/>
<path d="M45.5 91C45.5 91 46.5 104.5 59.5 105.5" stroke="white" stroke-width="6"/>
<path d="M107 91C107 91 106 104.5 93 105.5" stroke="white" stroke-width="6"/>
</svg>
