<svg width="150" height="150" viewBox="0 0 150 150" fill="none" xmlns="http://www.w3.org/2000/svg">
<path d="M2 135.752L45 89.7517C45 89.7517 50 86.7517 50 69.2516C50 51.7515 52 49.7518 52 49.7518C52 49.7518 77.5 -8.74835 75 3.7516C72.5 16.2515 71.5 32.9998 70.5 47.5M22.5 148.252L47 118.502L59.25 103.627L65.375 96.1892C65.375 96.1892 67.375 93.6892 68.4375 92.4704C70.1731 89.7893 71.5 89.7517 71.5 89C78 88 74.5 55 74.5 50.5C74.5 46 74.5 41.2482 70.5 47.5M70.5 47.5C67.5 50.5 63 84.5 63 84.5" stroke="white" stroke-width="3"/>
<path d="M148.441 135.752L105.441 89.7517C105.441 89.7517 100.441 86.7517 100.441 69.2516C100.441 51.7515 98.4409 49.7518 98.4409 49.7518C98.4409 49.7518 72.9409 -8.74835 75.4409 3.7516C77.9409 16.2515 78.9409 32.9998 79.9409 47.5M127.941 148.252L103.441 118.502L91.1909 103.627L85.0659 96.1892C85.0659 96.1892 83.0659 93.6892 82.0034 92.4704C80.2679 89.7893 78.9409 89.7517 78.9409 89C72.4409 88 75.9409 55 75.9409 50.5C75.9409 46 75.9409 41.2482 79.9409 47.5M79.9409 47.5C82.9409 50.5 87.4409 84.5 87.4409 84.5" stroke="white" stroke-width="3"/>
<path d="M44.5 90C44.5 90 45.5 103.5 58.5 104.5" stroke="white" stroke-width="3"/>
<path d="M44.5 90C44.5 90 45.5 103.5 58.5 104.5" stroke="white" stroke-width="3"/>
<path d="M106 90C106 90 105 103.5 92 104.5" stroke="white" stroke-width="3"/>
</svg>
